<mxfile host="app.diagrams.net" agent="Mozilla/5.0 (Windows NT 10.0; Win64; x64; rv:144.0) Gecko/20100101 Firefox/144.0" version="28.2.7">
  <diagram name="Page-1" id="_hoMwd28Hi3362FazXL0">
    <mxGraphModel dx="1489" dy="833" grid="1" gridSize="10" guides="1" tooltips="1" connect="1" arrows="1" fold="1" page="1" pageScale="1" pageWidth="850" pageHeight="1100" math="0" shadow="0">
      <root>
        <mxCell id="0" />
        <mxCell id="1" parent="0" />
        <mxCell id="oyE9tzZyl3FOCuDMrKJ6-2" value="" style="rounded=0;whiteSpace=wrap;html=1;" vertex="1" parent="1">
          <mxGeometry x="240" y="280" width="375" height="640" as="geometry" />
        </mxCell>
        <mxCell id="oyE9tzZyl3FOCuDMrKJ6-3" value="Mentor" style="shape=umlActor;verticalLabelPosition=bottom;verticalAlign=top;html=1;outlineConnect=0;fontSize=14;" vertex="1" parent="1">
          <mxGeometry x="70" y="680" width="65" height="130" as="geometry" />
        </mxCell>
        <mxCell id="oyE9tzZyl3FOCuDMrKJ6-7" value="User - Student / Fresh Graduate" style="shape=umlActor;verticalLabelPosition=bottom;verticalAlign=top;html=1;outlineConnect=0;fontSize=14;" vertex="1" parent="1">
          <mxGeometry x="70" y="430" width="65" height="130" as="geometry" />
        </mxCell>
        <mxCell id="oyE9tzZyl3FOCuDMrKJ6-8" value="Guidely App" style="text;html=1;whiteSpace=wrap;strokeColor=none;fillColor=none;align=center;verticalAlign=middle;rounded=0;fontSize=20;" vertex="1" parent="1">
          <mxGeometry x="370" y="300" width="115" height="30" as="geometry" />
        </mxCell>
        <mxCell id="oyE9tzZyl3FOCuDMrKJ6-9" value="Login" style="ellipse;whiteSpace=wrap;html=1;" vertex="1" parent="1">
          <mxGeometry x="270" y="420" width="110" height="50" as="geometry" />
        </mxCell>
        <mxCell id="oyE9tzZyl3FOCuDMrKJ6-13" value="" style="endArrow=none;html=1;rounded=0;entryX=0;entryY=0.5;entryDx=0;entryDy=0;exitX=0.5;exitY=0.5;exitDx=0;exitDy=0;exitPerimeter=0;" edge="1" parent="1" source="oyE9tzZyl3FOCuDMrKJ6-7" target="oyE9tzZyl3FOCuDMrKJ6-9">
          <mxGeometry width="50" height="50" relative="1" as="geometry">
            <mxPoint x="220" y="460" as="sourcePoint" />
            <mxPoint x="270" y="410" as="targetPoint" />
          </mxGeometry>
        </mxCell>
        <mxCell id="oyE9tzZyl3FOCuDMrKJ6-14" value="&lt;div&gt;Display Login&lt;/div&gt;&lt;div&gt;error&lt;/div&gt;" style="ellipse;whiteSpace=wrap;html=1;" vertex="1" parent="1">
          <mxGeometry x="440" y="470" width="110" height="50" as="geometry" />
        </mxCell>
        <mxCell id="oyE9tzZyl3FOCuDMrKJ6-15" value="Verify password" style="ellipse;whiteSpace=wrap;html=1;" vertex="1" parent="1">
          <mxGeometry x="440" y="390" width="110" height="50" as="geometry" />
        </mxCell>
        <mxCell id="oyE9tzZyl3FOCuDMrKJ6-17" value="" style="endArrow=open;dashed=1;endFill=0;endSize=12;html=1;rounded=0;exitX=1;exitY=0.5;exitDx=0;exitDy=0;entryX=0.024;entryY=0.664;entryDx=0;entryDy=0;entryPerimeter=0;" edge="1" parent="1" source="oyE9tzZyl3FOCuDMrKJ6-9" target="oyE9tzZyl3FOCuDMrKJ6-15">
          <mxGeometry width="160" relative="1" as="geometry">
            <mxPoint x="300" y="360" as="sourcePoint" />
            <mxPoint x="460" y="360" as="targetPoint" />
            <Array as="points">
              <mxPoint x="420" y="430" />
            </Array>
          </mxGeometry>
        </mxCell>
        <mxCell id="oyE9tzZyl3FOCuDMrKJ6-29" value="&amp;lt;&amp;lt;includes&amp;gt;&amp;gt;" style="edgeLabel;html=1;align=center;verticalAlign=middle;resizable=0;points=[];fontSize=8;rotation=-20;labelBackgroundColor=none;" vertex="1" connectable="0" parent="oyE9tzZyl3FOCuDMrKJ6-17">
          <mxGeometry x="-0.2181" y="1" relative="1" as="geometry">
            <mxPoint x="-3" y="-8" as="offset" />
          </mxGeometry>
        </mxCell>
        <mxCell id="oyE9tzZyl3FOCuDMrKJ6-30" value="&amp;lt;&amp;lt;extends&amp;gt;&amp;gt;" style="edgeLabel;html=1;align=center;verticalAlign=middle;resizable=0;points=[];fontSize=8;rotation=20;labelBorderColor=none;labelBackgroundColor=none;" vertex="1" connectable="0" parent="oyE9tzZyl3FOCuDMrKJ6-17">
          <mxGeometry x="-0.2181" y="1" relative="1" as="geometry">
            <mxPoint x="-1" y="51" as="offset" />
          </mxGeometry>
        </mxCell>
        <mxCell id="oyE9tzZyl3FOCuDMrKJ6-18" value="" style="endArrow=open;dashed=1;endFill=0;endSize=12;html=1;rounded=0;exitX=0;exitY=0.5;exitDx=0;exitDy=0;entryX=1;entryY=1;entryDx=0;entryDy=0;" edge="1" parent="1" source="oyE9tzZyl3FOCuDMrKJ6-14" target="oyE9tzZyl3FOCuDMrKJ6-9">
          <mxGeometry width="160" relative="1" as="geometry">
            <mxPoint x="390" y="425" as="sourcePoint" />
            <mxPoint x="453" y="403" as="targetPoint" />
          </mxGeometry>
        </mxCell>
        <mxCell id="oyE9tzZyl3FOCuDMrKJ6-21" value="Search for scholarship" style="ellipse;whiteSpace=wrap;html=1;" vertex="1" parent="1">
          <mxGeometry x="270" y="520" width="110" height="50" as="geometry" />
        </mxCell>
        <mxCell id="oyE9tzZyl3FOCuDMrKJ6-22" value="" style="endArrow=none;html=1;rounded=0;exitX=0.5;exitY=0.5;exitDx=0;exitDy=0;exitPerimeter=0;entryX=0;entryY=0.5;entryDx=0;entryDy=0;" edge="1" parent="1" source="oyE9tzZyl3FOCuDMrKJ6-7" target="oyE9tzZyl3FOCuDMrKJ6-21">
          <mxGeometry width="50" height="50" relative="1" as="geometry">
            <mxPoint x="240" y="550" as="sourcePoint" />
            <mxPoint x="290" y="500" as="targetPoint" />
          </mxGeometry>
        </mxCell>
        <mxCell id="oyE9tzZyl3FOCuDMrKJ6-23" value="&lt;div&gt;Book a&amp;nbsp;&lt;/div&gt;&lt;div&gt;mentorship&amp;nbsp;&lt;/div&gt;&lt;div&gt;session&lt;/div&gt;" style="ellipse;whiteSpace=wrap;html=1;" vertex="1" parent="1">
          <mxGeometry x="362.5" y="600" width="130" height="60" as="geometry" />
        </mxCell>
        <mxCell id="oyE9tzZyl3FOCuDMrKJ6-24" value="" style="endArrow=none;html=1;rounded=0;exitX=0.5;exitY=0.5;exitDx=0;exitDy=0;exitPerimeter=0;entryX=0;entryY=0.5;entryDx=0;entryDy=0;" edge="1" parent="1" source="oyE9tzZyl3FOCuDMrKJ6-7" target="oyE9tzZyl3FOCuDMrKJ6-23">
          <mxGeometry width="50" height="50" relative="1" as="geometry">
            <mxPoint x="133" y="475" as="sourcePoint" />
            <mxPoint x="325" y="585" as="targetPoint" />
          </mxGeometry>
        </mxCell>
        <mxCell id="oyE9tzZyl3FOCuDMrKJ6-25" value="" style="endArrow=none;html=1;rounded=0;exitX=1;exitY=0.5;exitDx=0;exitDy=0;entryX=0.5;entryY=0.5;entryDx=0;entryDy=0;entryPerimeter=0;" edge="1" parent="1" source="oyE9tzZyl3FOCuDMrKJ6-23" target="oyE9tzZyl3FOCuDMrKJ6-3">
          <mxGeometry width="50" height="50" relative="1" as="geometry">
            <mxPoint x="670" y="510" as="sourcePoint" />
            <mxPoint x="720" y="460" as="targetPoint" />
          </mxGeometry>
        </mxCell>
        <mxCell id="oyE9tzZyl3FOCuDMrKJ6-26" value="&lt;div&gt;Choose a&amp;nbsp;&lt;/div&gt;&lt;div&gt;template&lt;/div&gt;" style="ellipse;whiteSpace=wrap;html=1;" vertex="1" parent="1">
          <mxGeometry x="270" y="670" width="110" height="50" as="geometry" />
        </mxCell>
        <mxCell id="oyE9tzZyl3FOCuDMrKJ6-27" value="" style="endArrow=none;html=1;rounded=0;entryX=0;entryY=0.5;entryDx=0;entryDy=0;exitX=0.5;exitY=0.5;exitDx=0;exitDy=0;exitPerimeter=0;" edge="1" parent="1" source="oyE9tzZyl3FOCuDMrKJ6-7" target="oyE9tzZyl3FOCuDMrKJ6-26">
          <mxGeometry width="50" height="50" relative="1" as="geometry">
            <mxPoint x="133" y="475" as="sourcePoint" />
            <mxPoint x="350" y="705" as="targetPoint" />
          </mxGeometry>
        </mxCell>
        <mxCell id="oyE9tzZyl3FOCuDMrKJ6-28" value="Admin" style="shape=umlActor;verticalLabelPosition=bottom;verticalAlign=top;html=1;outlineConnect=0;fontSize=14;" vertex="1" parent="1">
          <mxGeometry x="690" y="720" width="65" height="130" as="geometry" />
        </mxCell>
        <mxCell id="oyE9tzZyl3FOCuDMrKJ6-31" value="&lt;div&gt;Browse the&amp;nbsp;&lt;/div&gt;&lt;div&gt;community&lt;/div&gt;" style="ellipse;whiteSpace=wrap;html=1;" vertex="1" parent="1">
          <mxGeometry x="270" y="740" width="110" height="50" as="geometry" />
        </mxCell>
        <mxCell id="oyE9tzZyl3FOCuDMrKJ6-34" value="" style="endArrow=none;html=1;rounded=0;entryX=0.5;entryY=0.5;entryDx=0;entryDy=0;entryPerimeter=0;exitX=0;exitY=0.5;exitDx=0;exitDy=0;" edge="1" parent="1" source="oyE9tzZyl3FOCuDMrKJ6-31" target="oyE9tzZyl3FOCuDMrKJ6-7">
          <mxGeometry width="50" height="50" relative="1" as="geometry">
            <mxPoint x="160" y="700" as="sourcePoint" />
            <mxPoint x="210" y="650" as="targetPoint" />
          </mxGeometry>
        </mxCell>
      </root>
    </mxGraphModel>
  </diagram>
</mxfile>
